<svg xmlns="http://www.w3.org/2000/svg" width="600" height="400" viewBox="0 0 600 400">
	<rect width="100%" height="100%" fill="#DDDDDD" />
	<path fill="#999999" d="M150.555 206.31q.63 0 1.11.49l3.03 3.27q-2.51 3.11-6.17 4.76-3.67 1.66-8.8 1.66-4.59 0-8.25-1.57t-6.25-4.36q-2.6-2.8-3.98-6.67-1.38-3.88-1.38-8.47 0-4.64 1.48-8.5 1.48-3.86 4.18-6.66 2.69-2.79 6.42-4.34 3.74-1.56 8.27-1.56 4.5 0 7.99 1.48 3.49 1.49 5.94 3.88l-2.56 3.56q-.23.35-.59.6-.35.26-.98.26-.43 0-.88-.24-.46-.25-1-.6-.54-.36-1.25-.79-.72-.42-1.66-.78-.94-.36-2.18-.6-1.24-.24-2.86-.24-2.77 0-5.06.98-2.29.99-3.95 2.85-1.65 1.87-2.56 4.56-.91 2.7-.91 6.14 0 3.48.98 6.19.98 2.71 2.66 4.56 1.69 1.85 3.97 2.83 2.28.99 4.9.99 1.56 0 2.83-.17t2.34-.54q1.07-.38 2.02-.96.96-.58 1.9-1.44.28-.26.6-.41.31-.16.65-.16Zm21.24-19.98q3.24 0 5.91 1.06 2.66 1.05 4.56 2.99 1.89 1.94 2.92 4.73 1.03 2.79 1.03 6.24 0 3.48-1.03 6.27-1.03 2.8-2.92 4.76-1.9 1.97-4.56 3.02-2.67 1.06-5.91 1.06-3.28 0-5.96-1.06-2.68-1.05-4.58-3.02-1.89-1.96-2.93-4.76-1.04-2.79-1.04-6.27 0-3.45 1.04-6.24t2.93-4.73q1.9-1.94 4.58-2.99 2.68-1.06 5.96-1.06Zm0 24.71q3.64 0 5.4-2.45 1.75-2.45 1.75-7.18 0-4.73-1.75-7.21-1.76-2.48-5.4-2.48-3.71 0-5.49 2.49-1.78 2.5-1.78 7.2t1.78 7.17q1.78 2.46 5.49 2.46Zm19.89-37.36h7.04v42.35h-7.04v-42.35Zm14.16 0h7.04v42.35h-7.04v-42.35Zm19.64 24.37h13.28q0-1.37-.38-2.58-.39-1.21-1.16-2.13-.77-.91-1.95-1.44-1.18-.52-2.75-.52-3.05 0-4.8 1.74-1.76 1.73-2.24 4.93Zm17.95 4.24h-18.09q.17 2.25.79 3.89.63 1.64 1.66 2.71 1.02 1.07 2.43 1.6 1.42.52 3.13.52t2.95-.4q1.24-.39 2.16-.88.93-.48 1.63-.88.69-.4 1.35-.4.88 0 1.31.65l2.02 2.57q-1.16 1.37-2.62 2.29-1.45.93-3.03 1.49-1.58.55-3.22.78-1.64.23-3.18.23-3.05 0-5.67-1.01-2.62-1.02-4.56-3-1.94-1.98-3.05-4.9-1.11-2.92-1.11-6.77 0-2.99.96-5.63.97-2.63 2.78-4.58 1.81-1.96 4.42-3.1 2.61-1.14 5.89-1.14 2.76 0 5.1.89 2.34.88 4.02 2.58 1.68 1.69 2.63 4.16.96 2.46.96 5.63 0 1.59-.34 2.15-.35.55-1.32.55Zm29.73-11.88-1.85 2.56q-.32.4-.62.63-.29.23-.86.23-.55 0-1.06-.33t-1.22-.74q-.72-.41-1.7-.74t-2.44-.33q-1.85 0-3.25.67-1.39.67-2.32 1.92-.93 1.26-1.38 3.04-.46 1.78-.46 4.03 0 2.34.5 4.16.5 1.83 1.44 3.07.94 1.24 2.28 1.88 1.34.64 3.02.64t2.72-.41q1.04-.42 1.76-.92.71-.49 1.24-.91.52-.41 1.18-.41.85 0 1.28.65l2.03 2.57q-1.17 1.37-2.54 2.29-1.37.93-2.84 1.49-1.46.55-3.02.78-1.55.23-3.09.23-2.71 0-5.1-1.01-2.4-1.02-4.19-2.95-1.8-1.94-2.84-4.75-1.04-2.81-1.04-6.4 0-3.22.93-5.97.93-2.75 2.72-4.76 1.8-2.01 4.45-3.15 2.65-1.14 6.1-1.14 3.27 0 5.74 1.06 2.46 1.05 4.43 3.02Zm14.42 26.08q-3.82 0-5.86-2.16-2.03-2.15-2.03-5.94v-16.33h-3q-.57 0-.97-.37-.39-.37-.39-1.11v-2.79l4.7-.77 1.48-7.98q.14-.57.54-.89.4-.31 1.03-.31h3.65v9.21h7.81v5.01h-7.81v15.85q0 1.37.67 2.13.67.77 1.83.77.66 0 1.1-.15.44-.16.77-.33t.58-.33q.26-.15.52-.15.31 0 .51.15.2.16.43.47l2.11 3.42q-1.54 1.29-3.54 1.94-1.99.66-4.13.66Zm11.69-29.7h7.06v29.24h-7.06v-29.24Zm8.03-8.52q0 .91-.37 1.71-.37.8-.98 1.39-.61.6-1.44.96t-1.77.36q-.91 0-1.72-.36-.81-.36-1.41-.96-.6-.59-.96-1.39-.35-.8-.35-1.71 0-.94.35-1.77.36-.83.96-1.42.6-.6 1.41-.96.81-.36 1.72-.36.94 0 1.77.36.83.36 1.44.96.61.59.98 1.42t.37 1.77Zm19.16 8.06q3.24 0 5.91 1.06 2.66 1.05 4.56 2.99 1.89 1.94 2.92 4.73 1.03 2.79 1.03 6.24 0 3.48-1.03 6.27-1.03 2.8-2.92 4.76-1.9 1.97-4.56 3.02-2.67 1.06-5.91 1.06-3.28 0-5.96-1.06-2.68-1.05-4.58-3.02-1.89-1.96-2.93-4.76-1.04-2.79-1.04-6.27 0-3.45 1.04-6.24t2.93-4.73q1.9-1.94 4.58-2.99 2.68-1.06 5.96-1.06Zm0 24.71q3.64 0 5.4-2.45 1.75-2.45 1.75-7.18 0-4.73-1.75-7.21-1.76-2.48-5.4-2.48-3.71 0-5.49 2.49-1.78 2.5-1.78 7.2t1.78 7.17q1.78 2.46 5.49 2.46Zm25.9-22.97.49 2.31q.88-.88 1.86-1.64.99-.75 2.08-1.28 1.1-.53 2.35-.83 1.26-.3 2.74-.3 2.39 0 4.25.82 1.85.81 3.09 2.28 1.24 1.46 1.88 3.5.64 2.04.64 4.49v18.61h-7.04v-18.61q0-2.68-1.22-4.15-1.23-1.47-3.74-1.47-1.82 0-3.42.83-1.59.83-3.02 2.25v21.15h-7.04v-29.24h4.31q1.36 0 1.79 1.28Zm40.13-1.28h7.07v29.24h-7.07v-29.24Zm8.04-8.52q0 .91-.37 1.71-.37.8-.99 1.39-.61.6-1.44.96-.82.36-1.76.36-.92 0-1.73-.36-.81-.36-1.41-.96-.6-.59-.95-1.39-.36-.8-.36-1.71 0-.94.36-1.77.35-.83.95-1.42.6-.6 1.41-.96.81-.36 1.73-.36.94 0 1.76.36.83.36 1.44.96.62.59.99 1.42t.37 1.77Zm13.25 37.76h-7.04v-29.24h4.3q1.37 0 1.8 1.28l.45 2.17q.77-.86 1.61-1.57.85-.71 1.8-1.23.96-.51 2.05-.81 1.1-.3 2.41-.3 2.77 0 4.55 1.5 1.78 1.5 2.66 3.97.69-1.45 1.71-2.49 1.03-1.04 2.25-1.69 1.23-.66 2.61-.97 1.38-.32 2.78-.32 2.42 0 4.3.74 1.88.75 3.17 2.17 1.28 1.42 1.95 3.48.67 2.05.67 4.7v18.61h-7.04v-18.61q0-2.79-1.23-4.2-1.22-1.42-3.59-1.42-1.08 0-2.01.38-.92.37-1.62 1.06-.7.7-1.1 1.76-.4 1.05-.4 2.42v18.61h-7.07v-18.61q0-2.94-1.18-4.28-1.18-1.34-3.46-1.34-1.54 0-2.87.76-1.32.76-2.46 2.07v21.4Zm51.38-15.33q1.32 0 2.28-.36.97-.36 1.61-.98.65-.63.97-1.51.33-.89.33-1.94 0-2.17-1.3-3.44-1.29-1.26-3.89-1.26-2.59 0-3.89 1.26-1.29 1.27-1.29 3.44 0 1.02.33 1.91.32.88.96 1.52.65.64 1.63 1 .98.36 2.26.36Zm7.96 16.64q0-.85-.52-1.4-.51-.54-1.39-.84-.89-.3-2.07-.44-1.18-.14-2.51-.21-1.32-.07-2.73-.13t-2.75-.23q-1.17.66-1.9 1.54t-.73 2.05q0 .77.39 1.44.38.67 1.22 1.16.84.48 2.18.75 1.34.27 3.28.27 1.97 0 3.39-.3 1.43-.3 2.35-.82.93-.53 1.36-1.26.43-.72.43-1.58Zm-1.4-29.55h8.41v2.62q0 1.25-1.51 1.54l-2.63.48q.6 1.51.6 3.31 0 2.16-.87 3.92-.87 1.75-2.4 2.97-1.54 1.23-3.64 1.9-2.09.67-4.52.67-.85 0-1.65-.09-.8-.08-1.57-.22-1.36.82-1.36 1.85 0 .88.81 1.3.81.41 2.15.58 1.34.17 3.05.21 1.71.05 3.51.19 1.79.14 3.5.5 1.71.35 3.05 1.12 1.34.77 2.15 2.1.81 1.32.81 3.4 0 1.94-.95 3.77-.96 1.82-2.77 3.25-1.8 1.42-4.44 2.29-2.64.87-6 .87-3.31 0-5.76-.64-2.45-.64-4.07-1.71-1.63-1.07-2.43-2.47-.79-1.39-.79-2.91 0-2.05 1.24-3.43 1.24-1.38 3.4-2.21-1.17-.6-1.85-1.59-.68-1-.68-2.63 0-.65.24-1.35.24-.7.71-1.38.47-.69 1.18-1.3.72-.61 1.68-1.1-2.22-1.19-3.49-3.19-1.26-1.99-1.26-4.67 0-2.17.86-3.92.87-1.75 2.43-2.99 1.55-1.24 3.67-1.9 2.13-.65 4.63-.65 1.89 0 3.54.38 1.65.39 3.02 1.13Z" />
</svg>
