<svg width="14" height="14" viewBox="0 0 14 14" fill="none" xmlns="http://www.w3.org/2000/svg">
	<path fill-rule="evenodd" clip-rule="evenodd" d="M7 14.0068C10.866 14.0068 14 10.8728 14 7.00684C14 3.14084 10.866 0.00683594 7 0.00683594C3.13401 0.00683594 0 3.14084 0 7.00684C0 10.8728 3.13401 14.0068 7 14.0068ZM9.78033 9.78717C9.48744 10.0801 9.01256 10.0801 8.71967 9.78717L7 8.0675L5.28033 9.78717C4.98744 10.0801 4.51256 10.0801 4.21967 9.78717C3.92678 9.49427 3.92678 9.0194 4.21967 8.72651L5.93934 7.00684L4.21967 5.28717C3.92678 4.99427 3.92678 4.5194 4.21967 4.22651C4.51256 3.93361 4.98744 3.93361 5.28033 4.22651L7 5.94618L8.71967 4.22651C9.01256 3.93361 9.48744 3.93361 9.78033 4.22651C10.0732 4.5194 10.0732 4.99427 9.78033 5.28717L8.06066 7.00684L9.78033 8.72651C10.0732 9.0194 10.0732 9.49427 9.78033 9.78717Z" fill="#0F172A" />
</svg>
